<?xml version="1.0" encoding="UTF-8" standalone="no"?>
<!-- Created with Inkscape (http://www.inkscape.org/) -->

<svg
   xmlns:dc="http://purl.org/dc/elements/1.1/"
   xmlns:cc="http://creativecommons.org/ns#"
   xmlns:rdf="http://www.w3.org/1999/02/22-rdf-syntax-ns#"
   xmlns:svg="http://www.w3.org/2000/svg"
   xmlns="http://www.w3.org/2000/svg"
   xmlns:sodipodi="http://sodipodi.sourceforge.net/DTD/sodipodi-0.dtd"
   xmlns:inkscape="http://www.inkscape.org/namespaces/inkscape"
   version="1.1"
   id="svg42345"
   xml:space="preserve"
   width="800"
   height="800"
   viewBox="0 0 800 800"
   sodipodi:docname="glass-in-hand-publicdomainvectors.org.svg"
   inkscape:version="0.92.4 (5da689c313, 2019-01-14)"><metadata
     id="metadata42351"><rdf:RDF><cc:Work
         rdf:about=""><dc:format>image/svg+xml</dc:format><dc:type
           rdf:resource="http://purl.org/dc/dcmitype/StillImage" /><dc:title></dc:title></cc:Work></rdf:RDF></metadata><defs
     id="defs42349"><clipPath
       clipPathUnits="userSpaceOnUse"
       id="clipPath42361"><path
         d="M 0,600 H 600 V 0 H 0 Z"
         id="path42359"
         inkscape:connector-curvature="0" /></clipPath></defs><sodipodi:namedview
     pagecolor="#ffffff"
     bordercolor="#666666"
     borderopacity="1"
     objecttolerance="10"
     gridtolerance="10"
     guidetolerance="10"
     inkscape:pageopacity="0"
     inkscape:pageshadow="2"
     inkscape:window-width="797"
     inkscape:window-height="480"
     id="namedview42347"
     showgrid="false"
     inkscape:zoom="0.295"
     inkscape:cx="400"
     inkscape:cy="400"
     inkscape:window-x="0"
     inkscape:window-y="0"
     inkscape:window-maximized="0"
     inkscape:current-layer="g42353" /><g
     id="g42353"
     inkscape:groupmode="layer"
     inkscape:label="glass-in-hand-publicdomainvectors.org"
     transform="matrix(1.3333333,0,0,-1.3333333,0,800)"><g
       id="g42355"><g
         id="g42357"
         clip-path="url(#clipPath42361)"><path
           d="m 449.064,361.25 c 0,6.324 -6.367,11.096 -12.157,14.56 l 43.257,-0.109 c -5.554,-3.08 -11.796,-8.236 -11.796,-14.451 V 200.057 h -19.304 z"
           style="fill:#70968e;fill-opacity:1;fill-rule:evenodd;stroke:none"
           id="path42363"
           inkscape:connector-curvature="0" /><path
           d="m 407.677,205.495 c 18.776,0.44 32.492,4.042 41.387,10.655 0,-10.655 19.304,-10.655 19.304,0 8.903,-7.569 24.244,-10.355 42.719,-10.822 -29.551,-1.486 -59.103,-2.973 -88.649,-4.456 -4.921,1.538 -9.84,3.081 -14.761,4.623"
           style="fill:#d8e4dd;fill-opacity:1;fill-rule:evenodd;stroke:none"
           id="path42365"
           inkscape:connector-curvature="0" /><path
           d="m 547.602,478.157 c 0,-58.292 -39.794,-105.548 -88.884,-105.548 -49.091,0 -88.884,47.256 -88.884,105.548 0,31.053 12.659,86.42 17.496,119.439 h 142.774 c 4.837,-33.021 17.498,-88.382 17.498,-119.439"
           style="fill:#93b8b0;fill-opacity:1;fill-rule:evenodd;stroke:none"
           id="path42367"
           inkscape:connector-curvature="0" /><path
           d="m 547.602,478.157 c 0,-58.292 -39.794,-105.548 -88.884,-105.548 -49.091,0 -88.884,47.256 -88.884,105.548 0,8.964 1.056,19.957 2.672,31.852 H 544.93 c 1.616,-11.895 2.672,-22.887 2.672,-31.852"
           style="fill:#81a8a0;fill-opacity:1;fill-rule:evenodd;stroke:none"
           id="path42369"
           inkscape:connector-curvature="0" /><path
           d="M 526.33,597.596 H 391.102 c -5.764,-36.202 -12.831,-83.316 -12.831,-119.439 0,-45.839 30.024,-91.556 80.447,-91.556 50.423,0 80.447,45.717 80.447,91.556 0,36.123 -7.067,83.237 -12.835,119.439"
           style="fill:#d8e4dd;fill-opacity:1;fill-rule:evenodd;stroke:none"
           id="path42371"
           inkscape:connector-curvature="0" /><path
           d="m 379.704,510.009 c -0.898,-11.145 -1.433,-21.916 -1.433,-31.852 0,-45.839 30.024,-91.556 80.447,-91.556 50.423,0 80.447,45.717 80.447,91.556 0,9.936 -0.535,20.707 -1.431,31.852 z"
           style="fill:#d14627;fill-opacity:1;fill-rule:evenodd;stroke:none"
           id="path42373"
           inkscape:connector-curvature="0" /><path
           d="m 423.914,588.007 h -23.148 c -4.938,-50.46 -27.654,-138.355 24.076,-184.714 -37.344,61.108 -14.417,127.939 -0.928,184.714"
           style="fill:#ffffff;fill-opacity:1;fill-rule:evenodd;stroke:none"
           id="path42375"
           inkscape:connector-curvature="0" /><path
           d="m 391.948,510.009 c -2.028,-39.284 3.007,-79.931 32.894,-106.716 -21.2,34.689 -22.972,71.223 -18.08,106.716 z"
           style="fill:#fad9d2;fill-opacity:1;fill-rule:evenodd;stroke:none"
           id="path42377"
           inkscape:connector-curvature="0" /><path
           d="m 476.255,588.007 h 43.054 c 4.937,-50.46 33.67,-153.632 -29.628,-184.714 20.214,73.146 0.062,127.939 -13.426,184.714"
           style="fill:#ffffff;fill-opacity:1;fill-rule:evenodd;stroke:none"
           id="path42379"
           inkscape:connector-curvature="0" /><path
           d="m 529.248,510.009 h -34.904 c 5.376,-32.31 6.375,-66.776 -4.663,-106.716 37.941,18.631 42.815,63.159 39.567,106.716"
           style="fill:#fad9d2;fill-opacity:1;fill-rule:evenodd;stroke:none"
           id="path42381"
           inkscape:connector-curvature="0" /><path
           d="m 456.225,368.917 v 0 c 2.799,0 5.089,-2.29 5.089,-5.091 V 224.249 c 0,-2.802 -2.29,-5.093 -5.089,-5.093 -2.805,0 -5.094,2.291 -5.094,5.093 v 139.577 c 0,2.801 2.289,5.091 5.094,5.091"
           style="fill:#d8e4dd;fill-opacity:1;fill-rule:evenodd;stroke:none"
           id="path42383"
           inkscape:connector-curvature="0" /><path
           d="m 407.677,205.495 h 102.079 c 2.994,0 5.438,-2.448 5.438,-5.438 v -0.003 c 0,-2.992 -2.444,-5.442 -5.438,-5.442 H 407.677 c -2.993,0 -5.439,2.45 -5.439,5.442 v 0.003 c 0,2.99 2.446,5.438 5.439,5.438"
           style="fill:#97bab2;fill-opacity:1;fill-rule:evenodd;stroke:none"
           id="path42385"
           inkscape:connector-curvature="0" /><path
           d="m 138.818,214.848 c 48.363,24.587 94.397,53.461 142.249,79.027 46.997,25.108 89.293,97.129 117.934,105.775 26.476,11.078 51.154,28.331 79.435,33.231 14.403,2.496 19.129,-8.568 35.813,-10.799 8.578,-2.499 17.98,-13.837 21.731,-19.19 5.979,-8.527 -0.848,-12.882 -4.863,-12.971 -6.767,-0.145 -11.887,6.486 -17.833,9.729 -10.496,3.068 -22.191,3.147 -34.848,0.811 -11.407,-4.751 -21.015,-12.812 -29.184,-23.507 16.077,3.309 33.058,5.277 49.445,3.242 9.716,-1.207 13.489,-10.334 12.968,-19.453 -1.046,-18.285 0.871,-27.021 -6.484,-34.041 1.483,-22.537 -2.021,-33.666 -8.107,-38.909 8.239,-5.634 9.763,-19.097 -0.809,-20.463 -10.306,-1.33 -19.724,-0.608 -29.99,1.013 -32.69,-22.072 -65.384,-41.211 -98.075,-43.771 -10.03,-13.318 -24.729,-16.286 -41.338,-15.397 -48.124,-33.312 -94.786,-74.37 -144.276,-104.562 -14.048,34.042 -29.719,76.191 -43.768,110.235"
           style="fill:#ffcc99;fill-opacity:1;fill-rule:evenodd;stroke:none"
           id="path42387"
           inkscape:connector-curvature="0" /><path
           d="m 190.305,234.698 c 28.601,17.246 71.196,33.423 102.533,56.736 42.506,31.622 76.278,83.772 117.53,106.992 22.629,12.738 47.652,20.679 71.733,30.395 1.861,0.75 11.37,-17.091 6.078,-18.643 -17.298,-5.071 -33.577,-12.694 -44.984,-24.316 -5.322,-5.42 -15.272,3.617 -22.695,2.026 -2.247,-0.48 -1.133,-4.893 0,-6.889 1.932,-3.407 7.811,-4.253 8.511,-8.107 1.906,-10.505 -6.238,-17.392 -2.318,-27.325 2.942,-7.463 13.086,-7.915 15.893,-15.43 2.727,-7.302 -1.976,-18.402 -1.014,-26.139 0.799,-6.394 9.519,-9.848 10.538,-16.21 1.297,-8.114 2.701,-19.634 -4.052,-24.316 -24.018,-16.663 -53.456,-29.097 -80.648,-34.45 -15.021,-2.955 -39.861,14.426 -55.119,8.916 -8.363,-3.018 16.816,-4.392 11.349,-21.882 -47.811,-15.983 -93.137,-56.019 -143.062,-49.041 -22.571,3.157 -9.79,55.912 9.727,67.683"
           style="fill:#e8ae74;fill-opacity:1;fill-rule:evenodd;stroke:none"
           id="path42389"
           inkscape:connector-curvature="0" /><path
           d="m 455.998,345.841 c 9.305,-1.532 25.841,0.051 37.767,2.637 1.941,-5.065 1.439,-10.134 -2.026,-15.199 -19.943,1.72 -33.091,3.278 -35.741,12.562"
           style="fill:#e8ae74;fill-opacity:1;fill-rule:evenodd;stroke:none"
           id="path42391"
           inkscape:connector-curvature="0" /><path
           d="m 454.782,303.263 c 8.688,-1.431 24.118,0.044 35.248,2.458 1.81,-4.727 1.343,-9.457 -1.891,-14.182 -18.614,1.604 -30.883,3.057 -33.357,11.724"
           style="fill:#e8ae74;fill-opacity:1;fill-rule:evenodd;stroke:none"
           id="path42393"
           inkscape:connector-curvature="0" /><path
           d="m 232.22,272.129 41.605,23.357 43.363,-108.206 -65.249,-44.983 z"
           style="fill:#e6e6e6;fill-opacity:1;fill-rule:evenodd;stroke:none"
           id="path42395"
           inkscape:connector-curvature="0" /><path
           d="M 291.656,118.388 230.865,275.63 63.894,194.575 132.79,43.004 Z"
           style="fill:#000000;fill-opacity:1;fill-rule:evenodd;stroke:none"
           id="path42397"
           inkscape:connector-curvature="0" /></g></g></g></svg>